{
  "asset": {
    "version": "2.0"
  },
  "scene": 0,
  "scenes": [
    {
      "nodes": [0]
    }
  ],
  "nodes": [
    {
      "mesh": 0,
      "name": "TexturedTriangle"
    }
  ],
  "meshes": [
    {
      "name": "TexturedTriangle",
      "primitives": [
        {
          "attributes": {
            "POSITION": 0,
            "NORMAL": 1,
            "COLOR_0": 2
          },
          "indices": 3,
          "material": 0,
          "mode": 4
        }
      ]
    }
  ],
  "materials": [
    {
      "name": "PaintedMaterial",
      "alphaMode": "BLEND",
      "pbrMetallicRoughness": {
        "baseColorFactor": [0.5, 0.75, 1.0, 0.5],
        "baseColorTexture": {
          "index": 0
        }
      }
    }
  ],
  "samplers": [
    {
      "name": "PixelSampler",
      "magFilter": 9728,
      "minFilter": 9985,
      "wrapS": 33071,
      "wrapT": 33648
    }
  ],
  "textures": [
    {
      "name": "PixelTexture",
      "sampler": 0,
      "source": 0
    }
  ],
  "images": [
    {
      "name": "InlinePixel",
      "mimeType": "image/png",
      "uri": "data:image/png;base64,"
    }
  ],
  "buffers": [
    {
      "byteLength": 128,
      "uri": "vertex_colors.bin"
    }
  ],
  "bufferViews": [
    {
      "buffer": 0,
      "byteLength": 36,
      "byteOffset": 8,
      "target": 34962
    },
    {
      "buffer": 0,
      "byteLength": 36,
      "byteOffset": 44,
      "target": 34962
    },
    {
      "buffer": 0,
      "byteLength": 48,
      "byteOffset": 80,
      "target": 34962
    },
    {
      "buffer": 0,
      "byteLength": 6,
      "byteOffset": 0,
      "target": 34963
    }
  ],
  "accessors": [
    {
      "bufferView": 0,
      "byteOffset": 0,
      "componentType": 5126,
      "count": 3,
      "max": [1.0, 1.0, 0.0],
      "min": [0.0, 0.0, 0.0],
      "type": "VEC3"
    },
    {
      "bufferView": 1,
      "byteOffset": 0,
      "componentType": 5126,
      "count": 3,
      "type": "VEC3"
    },
    {
      "bufferView": 2,
      "byteOffset": 0,
      "componentType": 5126,
      "count": 3,
      "type": "VEC4"
    },
    {
      "bufferView": 3,
      "byteOffset": 0,
      "componentType": 5123,
      "count": 3,
      "max": [2],
      "min": [0],
      "type": "SCALAR"
    }
  ]
}
