{
  "asset": {
    "version": "2.0"
  },
  "scene": 0,
  "scenes": [
    {
      "nodes": [0]
    }
  ],
  "nodes": [
    {
      "mesh": 0,
      "name": "MissingPosition"
    }
  ],
  "meshes": [
    {
      "name": "MissingPosition",
      "primitives": [
        {
          "attributes": {
            "NORMAL": 1
          },
          "indices": 0,
          "mode": 4
        }
      ]
    }
  ],
  "buffers": [
    {
      "byteLength": 1800,
      "uri": "Cube.bin"
    }
  ],
  "bufferViews": [
    {
      "buffer": 0,
      "byteLength": 72,
      "byteOffset": 0,
      "target": 34963
    },
    {
      "buffer": 0,
      "byteLength": 432,
      "byteOffset": 504,
      "target": 34962
    }
  ],
  "accessors": [
    {
      "bufferView": 0,
      "byteOffset": 0,
      "componentType": 5123,
      "count": 36,
      "max": [35],
      "min": [0],
      "type": "SCALAR"
    },
    {
      "bufferView": 1,
      "byteOffset": 0,
      "componentType": 5126,
      "count": 36,
      "type": "VEC3"
    }
  ]
}
