{
  "asset": {
    "version": "2.0"
  },
  "scene": 0,
  "scenes": [
    {
      "nodes": [0]
    }
  ],
  "nodes": [
    {
      "children": [1],
      "mesh": 0,
      "name": "Parent",
      "translation": [10.0, 0.0, 0.0]
    },
    {
      "mesh": 0,
      "name": "Child",
      "translation": [2.0, 0.0, 0.0]
    }
  ],
  "meshes": [
    {
      "name": "HierarchyTriangle",
      "primitives": [
        {
          "attributes": {
            "POSITION": 0,
            "NORMAL": 1
          },
          "indices": 2,
          "mode": 4
        }
      ]
    }
  ],
  "buffers": [
    {
      "byteLength": 128,
      "uri": "vertex_colors.bin"
    }
  ],
  "bufferViews": [
    {
      "buffer": 0,
      "byteLength": 36,
      "byteOffset": 8,
      "target": 34962
    },
    {
      "buffer": 0,
      "byteLength": 36,
      "byteOffset": 44,
      "target": 34962
    },
    {
      "buffer": 0,
      "byteLength": 6,
      "byteOffset": 0,
      "target": 34963
    }
  ],
  "accessors": [
    {
      "bufferView": 0,
      "byteOffset": 0,
      "componentType": 5126,
      "count": 3,
      "max": [1.0, 1.0, 0.0],
      "min": [0.0, 0.0, 0.0],
      "type": "VEC3"
    },
    {
      "bufferView": 1,
      "byteOffset": 0,
      "componentType": 5126,
      "count": 3,
      "type": "VEC3"
    },
    {
      "bufferView": 2,
      "byteOffset": 0,
      "componentType": 5123,
      "count": 3,
      "max": [2],
      "min": [0],
      "type": "SCALAR"
    }
  ]
}
